<svg width="239" height="37" viewBox="0 0 239 37" fill="none" xmlns="http://www.w3.org/2000/svg">
<path d="M24.3404 0.709839H21.2242L0 36.8216H20.195L22.9875 31.1209L25.9246 36.8216H46.7382L24.3404 0.709839ZM22.8257 5.28306L33.0937 21.8299H13.101L22.8257 5.28306ZM17.8882 33.1213H6.4638L10.9272 25.5244H21.6115L17.8882 33.1213ZM24.2826 25.5244H35.389L40.1068 33.1213H28.1794L24.2826 25.5244Z" fill="white"/>
<path d="M65.0252 36.3359H60.3652L70.7721 11.8278H75.6575L86.284 36.3359H81.3986L78.6292 29.6466H70.4599L72.0209 25.7093H76.9526L73.102 16.5051L65.0252 36.3359Z" fill="white"/>
<path d="M102.733 11.8278V15.7419H95.7022V36.3359H91.1637V15.7419H84.1333V11.8278H102.733Z" fill="white"/>
<path d="M113.012 36.3359V11.8278H122.61C130.704 11.8278 134.761 15.6821 134.78 23.3909C134.78 32.0132 130.723 36.3224 122.61 36.3185L113.012 36.3359ZM122.61 32.3928C127.697 32.3928 130.239 29.398 130.236 23.4083C130.236 18.2973 127.694 15.7419 122.61 15.7419H117.557V32.3928H122.61Z" fill="white"/>
<path d="M143.175 11.8278V36.3359H138.636V11.8278H143.175Z" fill="white"/>
<path d="M167.856 35.2027C165.497 36.1411 162.97 36.5839 160.433 36.5036C151.784 36.5036 147.459 32.2483 147.459 23.7378C147.459 15.686 151.859 11.6582 160.658 11.6543C163.11 11.6122 165.55 12.0178 167.856 12.8511V16.9618C165.689 16.0379 163.355 15.5714 160.999 15.5916C155.114 15.5916 152.171 18.3051 152.171 23.732C152.171 29.6177 154.948 32.5586 160.502 32.5547C161.452 32.5384 162.397 32.4004 163.312 32.1442V25.0213H167.856V35.2027Z" fill="white"/>
<path d="M176.679 11.8278V36.3359H172.141V11.8278H176.679Z" fill="white"/>
<path d="M197.846 11.8278V15.7419H190.821V36.3359H186.277V15.7419H179.229V11.8278H197.846Z" fill="white"/>
<path d="M200.366 36.3359H195.707L206.113 11.8278H210.999L221.62 36.3359H216.74L213.919 29.6466H205.824L207.385 25.7093H212.323L208.466 16.5051L200.366 36.3359Z" fill="white"/>
<path d="M229.159 11.8278V32.3928H238.889V36.3359H224.614V11.8278H229.159Z" fill="white"/>
</svg>
